<svg id="Logo" xmlns="http://www.w3.org/2000/svg" width="448.893px" height="71.805px"
    viewBox="0 0 448.893 71.805" fill="#fff">
    <path
        d="M155.413,14.679l-18.096,41.423h7.403l4.23-9.93h19.448l4.172,9.93h7.638l-18.097-41.423H155.413z
    M151.594,39.767l7.05-16.452l7.11,16.452H151.594z"></path>
    <polygon
        points="210.05,14.973 176.677,14.973 176.677,21.67 189.721,21.67 189.721,56.101 197.007,56.101 
   197.007,21.67 210.05,21.67 		"></polygon>
    <path
        d="M32.492,35.138c1.241-0.451,2.313-0.959,3.216-1.579c0.903-0.621,1.636-1.242,2.257-2.032
   c0.563-0.733,1.072-1.58,1.354-2.483c0.281-0.903,0.395-1.805,0.395-2.765c0-1.693-0.283-3.103-0.846-4.458
   c-0.565-1.354-1.411-2.482-2.653-3.441c-1.184-0.96-2.765-1.693-4.683-2.201c-0.881-0.234-1.836-0.404-2.865-0.524v-3.017
   c-0.113-0.677-0.225-1.241-0.282-1.636c-0.056-0.395-0.169-0.677-0.169-0.846c0-0.169-0.056-0.282-0.056-0.338
   c-0.226-0.96-0.79-1.411-1.75-1.411h-3.329v4.232v2.808h-1.716l0.052-2.755c-0.1-0.679-0.202-1.245-0.251-1.641
   c-0.049-0.397-0.157-0.681-0.153-0.85c0.003-0.169-0.052-0.283-0.051-0.339c-0.208-0.964-0.763-1.426-1.722-1.444l-3.328-0.063
   l-0.08,4.232l-0.054,2.86h-5.126H6.366v3.329c0,0.96,0.451,1.524,1.41,1.75c0.057,0,0.169,0.056,0.339,0.056
   c0.169,0,0.451,0.113,0.846,0.169c0.395,0.056,1.015,0.169,1.693,0.282v29.624c-0.677,0.112-1.297,0.225-1.693,0.282
   c-0.395,0.057-0.677,0.17-0.846,0.17c-0.17,0-0.282,0.056-0.339,0.056c-0.959,0.226-1.41,0.789-1.41,1.748v3.33h4.288h5.123
   l0.057,2.977l0.08,4.232l3.328-0.063c0.959-0.018,1.514-0.48,1.722-1.443c-0.001-0.057,0.054-0.17,0.051-0.339
   c-0.004-0.169,0.103-0.454,0.153-0.85c0.049-0.395,0.151-0.962,0.251-1.64c0,0-0.106-1.436-0.217-2.873h1.881v2.926V63.4h3.329
   c0.96,0,1.523-0.451,1.75-1.411c0-0.057,0.056-0.169,0.056-0.338c0-0.169,0.113-0.452,0.169-0.847
   c0.057-0.394,0.169-0.959,0.282-1.636v-3.055c1.331-0.139,2.563-0.392,3.71-0.774c1.862-0.621,3.385-1.412,4.627-2.484
   c1.242-1.072,2.201-2.37,2.878-3.836c0.677-1.468,1.016-3.047,1.016-4.797C40.899,39.426,38.078,36.379,32.492,35.138z
    M18.215,21.314h6.49c2.538,0,4.457,0.451,5.642,1.354c1.185,0.903,1.806,2.37,1.806,4.514c0,2.031-0.62,3.555-1.975,4.515
   c-1.354,0.959-3.273,1.411-5.869,1.411h-6.094V21.314z M32.999,46.48c-0.225,0.734-0.678,1.411-1.241,1.975
   c-0.565,0.565-1.298,1.016-2.258,1.354c-0.329,0.117-0.695,0.205-1.078,0.282c-0.013-0.081-0.026-0.164-0.036-0.234
   c-0.022-0.152-0.013,0.003,0.007,0.239c-0.724,0.142-1.533,0.22-2.447,0.22h-7.73V38.354h7.674c1.354,0,2.483,0.112,3.442,0.395
   c0.96,0.282,1.693,0.62,2.314,1.128c0.621,0.507,1.016,1.128,1.298,1.806c0.281,0.733,0.451,1.467,0.451,2.37
   C33.394,44.9,33.282,45.746,32.999,46.48z"></path>
    <path
        d="M139.906,28.721c0-8.285-5.993-13.748-15.628-13.748H108.06v41.129h7.227V42.881h8.168
   c9.049,0,16.452-4.818,16.452-14.042V28.721z M132.562,29.014c0,4.289-3.408,7.344-8.873,7.344h-8.402V21.553h8.402
   c5.406,0,8.873,2.526,8.873,7.344V29.014z"></path>
    <path
        d="M224.616,14.679l-18.095,41.423h7.403l4.23-9.93h19.448l4.173,9.93h7.637l-18.096-41.423H224.616z
    M220.797,39.767l7.051-16.452l7.109,16.452H220.797z"></path>
    <path
        d="M50.265,15.445h-4.289v3.329c0,0.96,0.451,1.524,1.411,1.75c0.056,0,0.169,0,0.338,0.056
   c0.169,0,0.452,0.113,0.847,0.169c0.395,0.056,1.016,0.169,1.693,0.282v29.624c-0.677,0.112-1.298,0.225-1.693,0.282
   c-0.395,0.057-0.677,0.114-0.847,0.17c-0.169,0-0.282,0.056-0.338,0.056c-0.959,0.226-1.411,0.789-1.411,1.748v3.33h4.289h7.617
   h4.232v-3.33c0-0.959-0.451-1.523-1.411-1.748c-0.056,0-0.169-0.056-0.339-0.056c-0.168,0-0.451-0.113-0.846-0.17
   c-0.396-0.057-0.959-0.169-1.637-0.282V21.031c0.678-0.113,1.241-0.226,1.637-0.282c0.394-0.056,0.677-0.169,0.846-0.169
   c0.17,0,0.283-0.056,0.339-0.056c0.96-0.226,1.411-0.79,1.411-1.75v-3.329h-4.232H50.265z"></path>
    <path
        d="M68.265,15.445h-0.057h-0.846v9.649h0.226h0.677h2.37c0.733,0,1.128-0.395,1.297-1.072
   c0.057-0.338,0.169-1.128,0.282-2.37h8.295v29.004c-0.677,0.112-1.241,0.225-1.636,0.282c-0.395,0.057-0.677,0.17-0.846,0.17
   s-0.282,0.056-0.338,0.056c-0.96,0.226-1.411,0.789-1.411,1.748v3.33h4.232h7.619h4.288v-3.33c0-0.959-0.508-1.523-1.467-1.748
   c-0.057,0-0.17-0.056-0.339-0.056c-0.169,0-0.451-0.113-0.847-0.17c-0.394-0.057-0.959-0.169-1.635-0.282V21.708h8.294
   c0.112,1.241,0.226,1.975,0.282,2.313c0.17,0.677,0.621,1.072,1.354,1.072h2.314h0.677h0.226v-9.649h-0.902H68.265z"></path>
    <path
        d="M314.971,14.267c-12.632,0-21.563,9.695-21.563,21.269v0.118c0,11.574,8.814,21.151,21.446,21.151
   c12.632,0,21.563-9.695,21.563-21.269v-0.117C336.417,23.845,327.604,14.267,314.971,14.267z M328.837,35.655
   c0,7.991-5.699,14.453-13.866,14.453c-8.166,0-13.984-6.58-13.984-14.571v-0.117c0-7.991,5.7-14.512,13.866-14.512
   c8.167,0,13.984,6.64,13.984,14.63V35.655z"></path>
    <path
        d="M270.669,39.414h10.517v7.697c-2.526,1.881-6.051,3.115-9.929,3.115c-8.402,0-13.984-6.228-13.984-14.689
   v-0.117c0-7.873,5.759-14.512,13.338-14.512c5.228,0,8.342,1.704,11.516,4.407l4.583-5.464c-4.232-3.584-8.637-5.582-15.806-5.582
   c-12.397,0-21.211,9.753-21.211,21.269v0.118c0,11.986,8.461,21.151,21.329,21.151c7.286,0,13.103-2.937,17.156-6.404V33.128
   h-17.508V39.414z"></path>
    <path
        d="M424.431,14.679h-6.698l-18.096,41.423h7.403l4.23-9.93h19.448l4.172,9.93h7.638L424.431,14.679z
    M413.914,39.767l7.051-16.452l7.108,16.452H413.914z"></path>
    <rect x="387.298" y="14.973" width="7.228" height="41.129"></rect>
    <polygon
        points="371.552,43.409 349.52,14.973 342.821,14.973 342.821,56.101 349.93,56.101 349.93,26.841 
   372.61,56.101 378.662,56.101 378.662,14.973 371.552,14.973 		"></polygon>
</svg>